<svg width="20" height="21" viewBox="0 0 20 21" fill="none" xmlns="http://www.w3.org/2000/svg">
<g id="twitter">
<path id="Vector" d="M18.2941 5.52265C18.4055 5.39279 18.2603 5.2231 18.0955 5.28388C17.7276 5.41956 17.3915 5.50905 16.8943 5.56429C17.5058 5.22379 17.7902 4.73712 18.0215 4.14103C18.0773 3.99726 17.909 3.86679 17.7641 3.93547C17.1755 4.21455 16.5405 4.4216 15.8726 4.54393C15.2125 3.88974 14.2716 3.48096 13.2308 3.48096C11.2321 3.48096 9.61137 4.98827 9.61137 6.84693C9.61137 7.1108 9.64371 7.36782 9.70471 7.61391C6.83167 7.48006 4.2698 6.25103 2.48994 4.36647C2.36795 4.2373 2.14659 4.25445 2.07063 4.41198C1.868 4.83228 1.75503 5.29853 1.75503 5.78942C1.75503 6.95699 2.3938 7.98715 3.36482 8.59079C2.92944 8.57771 2.51308 8.49287 2.12938 8.34891C1.94256 8.27882 1.72841 8.40199 1.75351 8.59037C1.9462 10.037 3.11738 11.2304 4.62912 11.5124C4.32553 11.5896 4.00578 11.6306 3.67501 11.6306C3.59481 11.6306 3.5153 11.6281 3.43652 11.6233C3.23604 11.6109 3.07311 11.7902 3.15906 11.9618C3.72615 13.0936 4.95066 13.8838 6.37562 13.9084C5.13704 14.8114 3.57651 15.3494 1.88073 15.3494C1.67163 15.3494 1.58193 15.6182 1.76743 15.7094C3.20013 16.4136 4.83167 16.8143 6.56527 16.8143C13.2227 16.8143 16.8627 11.6854 16.8627 7.23726C16.8627 7.09166 16.859 6.94605 16.8525 6.80182C17.3928 6.43879 17.8785 6.00712 18.2941 5.52265Z" fill="white"/>
</g>
</svg>
